<?xml version="1.0" encoding="UTF-8" standalone="no"?>
<!-- Created with Inkscape (http://www.inkscape.org/) -->

<svg
   xmlns:dc="http://purl.org/dc/elements/1.1/"
   xmlns:cc="http://creativecommons.org/ns#"
   xmlns:rdf="http://www.w3.org/1999/02/22-rdf-syntax-ns#"
   xmlns:svg="http://www.w3.org/2000/svg"
   xmlns="http://www.w3.org/2000/svg"
   xmlns:sodipodi="http://sodipodi.sourceforge.net/DTD/sodipodi-0.dtd"
   xmlns:inkscape="http://www.inkscape.org/namespaces/inkscape"
   height="122.97108mm"
   width="80.433334mm"
   viewBox="0 0 285.00001 435.72428"
   id="svg2"
   version="1.1"
   inkscape:version="0.91 r13725"
   sodipodi:docname="shrug.svg"
   inkscape:export-filename="/home/algot/Documents/runeman.org/clipart/shrug.png"
   inkscape:export-xdpi="78.431381"
   inkscape:export-ydpi="78.431381">
  <title
     id="title3223">Shrug</title>
  <defs
     id="defs8" />
  <sodipodi:namedview
     pagecolor="#ffffff"
     bordercolor="#666666"
     borderopacity="1"
     objecttolerance="10"
     gridtolerance="10"
     guidetolerance="10"
     inkscape:pageopacity="0"
     inkscape:pageshadow="2"
     inkscape:window-width="1366"
     inkscape:window-height="712"
     id="namedview6"
     showgrid="false"
     inkscape:zoom="1"
     inkscape:cx="-45.712204"
     inkscape:cy="192.70481"
     inkscape:window-x="0"
     inkscape:window-y="0"
     inkscape:window-maximized="1"
     inkscape:current-layer="svg2"
     fit-margin-top="0"
     fit-margin-left="0"
     fit-margin-right="0"
     fit-margin-bottom="0" />
  <metadata
     id="metadata4">
    <rdf:RDF>
      <cc:Work
         rdf:about="">
        <dc:format>image/svg+xml</dc:format>
        <dc:type
           rdf:resource="http://purl.org/dc/dcmitype/StillImage" />
        <dc:title>Shrug</dc:title>
        <dc:date>2017-05-12</dc:date>
        <dc:creator>
          <cc:Agent>
            <dc:title>Algot Runeman</dc:title>
          </cc:Agent>
        </dc:creator>
        <dc:rights>
          <cc:Agent>
            <dc:title>Algot Runeman</dc:title>
          </cc:Agent>
        </dc:rights>
        <dc:publisher>
          <cc:Agent>
            <dc:title>runeman.org</dc:title>
          </cc:Agent>
        </dc:publisher>
        <dc:identifier>shrug.svg</dc:identifier>
        <cc:license
           rdf:resource="http://creativecommons.org/publicdomain/zero/1.0/" />
      </cc:Work>
      <cc:License
         rdf:about="http://creativecommons.org/publicdomain/zero/1.0/">
        <cc:permits
           rdf:resource="http://creativecommons.org/ns#Reproduction" />
        <cc:permits
           rdf:resource="http://creativecommons.org/ns#Distribution" />
        <cc:permits
           rdf:resource="http://creativecommons.org/ns#DerivativeWorks" />
      </cc:License>
    </rdf:RDF>
  </metadata>
  <path
     style="fill:#000000;fill-rule:evenodd;stroke:#000000;stroke-width:0.953538px;stroke-linecap:butt;stroke-linejoin:miter;stroke-opacity:1"
     d="m 95.80965,220.88852 0,5.702 3.30116,9.30326 0.3001,5.10179 0.60022,19.50685 1.80063,12.90454 10.50369,37.21307 0.30011,7.80274 0.6002,15.60547 1.80064,13.80485 3.60126,17.40612 4.80169,13.80485 0.90031,2.40083 -1.80062,3.60127 0.30011,7.50263 2.40084,8.70306 c 0,0 -1.20812,7.78684 1.50052,8.01562 0.28788,0.0243 0.52538,-0.63221 0.3001,-0.81309 -1.29822,-1.04237 -2.62177,2.17513 -4.20146,2.70094 -1.33221,0.44343 -2.88615,-0.19109 -4.20149,0.30011 -0.93714,0.34996 -1.99446,0.88654 -2.40084,1.80064 -0.44884,1.00965 0.89233,2.36836 0.30009,3.30116 -0.62757,0.98848 -1.08894,0.07 -1.39406,1.20041 -0.40724,1.50861 -0.26365,2.82758 1.09397,3.60127 2.72911,1.55528 6.1763,1.20223 9.30327,1.50052 3.28774,0.31362 9.90347,0.3001 9.90347,0.3001 l 8.40295,-2.70094 2.40085,-2.10073 6.30221,-0.90032 6.90243,-1.20042 3.60125,-2.70094 -0.9003,-6.30222 -0.60021,-1.20043 1.20041,-1.20042 0,-3.30114 0.90032,-10.8038 -0.60022,-10.2036 -4.50157,-14.40504 -3.60127,-12.30432 0.60021,-15.30539 c 0,0 1.11825,-11.51473 0,-17.106 -0.51008,-2.55041 -3.00105,-7.20253 -3.00105,-7.20253 l -1.80063,-2.10074 1.50052,-0.3001 0.30011,-23.10812 -1.20042,-9.90347 1.20042,-18.00633 3.00105,12.90454 1.80063,19.20674 2.10075,12.30432 1.50051,15.60548 1.50054,19.50685 3.30116,30.61075 2.10073,8.70306 1.20043,2.70094 c 0,0 -4.20452,8.8289 -3.90137,13.50475 0.43766,6.7506 8.10284,18.60652 8.10284,18.60652 l 1.50053,2.70095 -1.20042,3.30116 0,4.20148 6.90242,3.90137 c 0,0 1.24833,4.31977 3.00105,5.40189 4.00423,2.47219 14.10495,0.60021 14.10495,0.60021 l 8.70307,0 3.00105,-3.00105 -1.50053,-5.10179 -2.40085,-2.10073 -0.90031,-5.1018 -0.90032,-0.6002 5.4019,-13.20465 0,-10.80379 -1.20042,-2.40084 -0.90032,-12.00422 -2.10073,-22.5079 -2.10074,-28.2099 -1.80063,-15.00527 0,-29.11023 -1.20043,-22.80801 -1.20042,-8.40294 -0.90032,-17.106 -0.3001,-15.30539 z"
     id="path4360"
     inkscape:connector-curvature="0"
     sodipodi:nodetypes="ccccccccccccccccssssssssscccccccccccccccsccccccccccccccscccccscccccccccccccccccccc" />
  <path
     style="fill:#000000;fill-rule:evenodd;stroke:#000000;stroke-width:1px;stroke-linecap:butt;stroke-linejoin:miter;stroke-opacity:1"
     d="m 97.5,221.50002 c 0,0 -3.43209,-6.54683 -3,-10 0.24132,-1.92861 3,-5 3,-5 l 2,-13 -3,-19 0,-9 0,-12 -5,8 c 0,0 -0.538702,5.67188 -2,8 -1.384042,2.20504 -3.698669,3.78277 -6,5 -2.145123,1.13461 -4.620815,2.47788 -7,2 -4.185161,-0.84062 -6.583035,-5.44137 -10,-8 -3.256955,-2.43881 -7.694083,-3.64764 -10,-7 -2.336664,-3.39706 0.249854,-9.46259 -3,-12 -1.839146,-1.43596 -5.350084,1.64992 -7,0 -2.592725,-2.59272 0,-11 0,-11 l -9,0 c 0,0 -2.985944,3.29351 -5,4 -1.258171,0.44134 -2.666667,0 -4,0 -2,0 -4.014985,-0.24437 -6,0 -2.728142,0.33585 -5.310528,2.56771 -8,2 -3.718641,-0.78495 -8.30214,-3.26403 -9,-7 -0.178446,-0.9553 1.5,-2.5 1.5,-2.5 l 5,0 1.5,-1.5 4.5,-1 4,2.5 5,-2.5 2.5,-2.5 -1.5,-1.5 -6,1.5 c 0,0 -2.519969,-0.28462 -3.5,-1 -0.970741,-0.70859 -2.567103,-1.94036 -2,-3 0.157286,-0.29389 0.472954,0.52705 1,0 1.317616,-1.31762 5,-2.5 5,-2.5 l 6,0 10,-3 4.5,0 5.5,3 c 0,0 3.504227,-2.76916 5.5,-2.5 1.290029,0.17398 3,2.5 3,2.5 l 2,4 8,3 5.5,9 0,-6.5 6,-20 c 0,0 1.908056,-3.91576 2.5,-6 1.152833,-4.05913 0.647434,-8.502989 2,-12.499999 1.577567,-4.66192 3.653489,-9.39125 7,-13 3.36374,-3.627333 7.75213,-6.610763 12.5,-8.000003 0.95976,-0.28083 2.00967,0.1387 3,0 3.60487,-0.50488 7.10756,-1.6804 10.5,-3 3.47327,-1.35104 10,-5 10,-5 0,0 -1.14724,-2.62039 -1.5,-4 -0.29195,-1.14178 -0.7607,-2.35068 -0.5,-3.5 0.13293,-0.58604 0.6453,-1.01492 1,-1.5 0.62991,-0.86145 2,-2.5 2,-2.5 l 0,-5.5 -4.5,-3.5 -2,-7.5 0,-4.5 1.5,-5 2,0 c 0,0 1,-8 1,-10 0,-2 2.32274,-4.90023 4,-7 1.69331,-2.1198605 3.58688,-4.2598505 6,-5.5000005 2.87824,-1.47918 6.28132,-1.66486 9.5,-2 3.48118,-0.36247 7.02967,-0.45476 10.5,0 2.56543,0.33618 5.14207,0.93482 7.5,2 1.09528,0.49478 2.11412,1.18781 3,2 1.57325,1.44238 2.84967,3.2021405 4,5.0000005 1.60685,2.51136 3.31501,5.09833 4,8 0.57438,2.43312 0,7.5 0,7.5 l -1.5,6.5 -2,5.5 -0.5,5.5 -1.5,6 c 0,0 -0.58579,3.5286 -2,4 -0.70711,0.2357 -2,-1 -2,-1 l -0.5,5.5 0.5,3 4.5,2.5 8.5,3.5 c 0,0 2.04626,-0.30064 3,0 1.94031,0.61163 5,3.5 5,3.5 l 8,1.5 5,2.5 5.5,6.500003 5.5,6.5 3.5,8.5 4.5,11.499999 4.5,12 2.5,11 1.5,-2 2.5,-5 4.5,-4.5 5.5,-1.5 4,-2 6.5,-1.5 6.5,0.5 7.5,-3.5 3,0.5 c 0,0 0.69778,1.34189 0.5,2 -0.78086,2.59834 -6,5.5 -6,5.5 l -4.5,0 -1,1.5 4,3.5 7.5,1.5 8.5,1.5 c 0,0 2.29289,-0.70711 3,0 0.70711,0.70711 0,3 0,3 l -1.5,1.5 c 0,0 -1.12896,1.6392 -2,2 -0.61592,0.25512 -2,0 -2,0 0,0 -1.83512,1.7042 -3,2 -1.78427,0.45307 -5.5,-0.5 -5.5,-0.5 0,0 -2.58169,1.37278 -4,1.5 -1.85594,0.16647 -5.5,-1 -5.5,-1 l -8.5,0.5 -1,6 -2,5.5 -3.5,8.5 -11,12 c 0,0 -2.42973,2.5805 -4,2.5 -1.8978,-0.0973 -4.5,-3.5 -4.5,-3.5 l -7,-3 -4.5,-5.5 -1,-3.5 c 0,0 -2.15766,0.53895 -3,0 -2.01007,-1.28611 -3,-6.5 -3,-6.5 0,0 -2.10684,-0.61125 -2.5,-1.5 -0.68761,-1.55438 1,-5 1,-5 l -2.5,-1 -2.5,35 2.5,17 0.5,18.5 0,8.5 0,5 z"
     id="path3200"
     inkscape:connector-curvature="0"
     sodipodi:nodetypes="csccccccsssssssccssssscccccccccssscccccsccccccsssssscssscccccccssssssssscccccscccccsccccccccccccccccccsccccccsccscscsccccccsccccscscccccccc" />
</svg>
